<?xml version="1.0" encoding="UTF-8" standalone="no"?>
<!-- Created with Inkscape (http://www.inkscape.org/) -->

<svg
   xmlns:dc="http://purl.org/dc/elements/1.1/"
   xmlns:cc="http://creativecommons.org/ns#"
   xmlns:rdf="http://www.w3.org/1999/02/22-rdf-syntax-ns#"
   xmlns:svg="http://www.w3.org/2000/svg"
   xmlns="http://www.w3.org/2000/svg"
   xmlns:sodipodi="http://sodipodi.sourceforge.net/DTD/sodipodi-0.dtd"
   xmlns:inkscape="http://www.inkscape.org/namespaces/inkscape"
   width="210mm"
   height="266mm"
   viewBox="0 0 210 266"
   version="1.1"
   id="svg5135"
   inkscape:version="0.92.1 r15371"
   sodipodi:docname="logo_f.svg">
  <defs
     id="defs5129" />
  <sodipodi:namedview
     id="base"
     pagecolor="#ffffff"
     bordercolor="#666666"
     borderopacity="1.0"
     inkscape:pageopacity="0.0"
     inkscape:pageshadow="2"
     inkscape:zoom="1.4"
     inkscape:cx="155.043"
     inkscape:cy="597.74057"
     inkscape:document-units="mm"
     inkscape:current-layer="layer1"
     showgrid="false"
     inkscape:window-width="3840"
     inkscape:window-height="2066"
     inkscape:window-x="-11"
     inkscape:window-y="-11"
     inkscape:window-maximized="1" />
  <metadata
     id="metadata5132">
    <rdf:RDF>
      <cc:Work
         rdf:about="">
        <dc:format>image/svg+xml</dc:format>
        <dc:type
           rdf:resource="http://purl.org/dc/dcmitype/StillImage" />
        <dc:title />
      </cc:Work>
    </rdf:RDF>
  </metadata>
  <g
     inkscape:label="Ebene 1"
     inkscape:groupmode="layer"
     id="layer1"
     transform="translate(0,-31)">
    <path
       inkscape:connector-curvature="0"
       id="path4503-2"
       style="fill:#000000;fill-opacity:1;fill-rule:nonzero;stroke:none;stroke-width:2.03133106"
       d="m 206.84125,68.132291 c 0,0 -8.20459,1.652703 -15.58913,8.587534 0,0 -2.7902,1.32257 -1.97015,-2.310931 0,0 12.96495,-8.917667 10.9948,-15.029204 0,0 -1.68668,-7.381122 -5.7424,-0.179331 0,0 -2.79021,7.281267 -7.05652,13.720899 0,0 -2.46219,3.798567 -1.80412,-1.485599 0,0 7.87657,-15.194271 -0.16603,-18.332572 0,0 -6.02993,-3.185173 -3.77225,5.781403 0,0 1.96813,5.284167 2.13214,11.395704 0,0 -0.16401,2.80613 -3.28224,0.495199 0,0 -13.71211,-11.603565 -16.57117,-1.982836 0,0 -1.1501,5.94647 4.92235,5.286204 0,0 17.22923,-1.32257 11.15679,9.082734 0,0 -12.00519,14.46268 -17.60383,30.394655 0.63377,0.77235 1.17237,1.59361 1.71908,2.41894 4.5923,-8.99511 13.14313,-22.120953 28.04179,-33.971098 0,0 3.92411,-4.126663 12.78475,-6.604699 0,0 9.84672,-3.633501 1.80614,-7.267002 z M 168.97703,131.096 c 0,16.60039 -15.20846,30.05637 -33.96644,30.05637 -18.76,0 -33.96846,-13.45598 -33.96846,-30.05637 0,-1.96042 0.37055,-5.17413 0.37055,-5.17413 0,0 -34.002884,24.01616 -59.951012,76.22609 -22.844072,53.75259 -18.1971,71.30262 -18.1971,71.30262 11.986962,49.20409 55.789995,3.96363 55.789995,3.96363 30.192157,-35.0104 68.260887,-1.26958 68.260887,-1.26958 49.88561,46.95429 53.16583,-0.051 53.16583,-0.051 5.54599,-61.82658 -9.40936,-109.55525 -31.58929,-145.74558 0.008,0.25473 0.085,0.49113 0.085,0.7479 z m -33.96644,-30.05637 c 5.53587,-0.0448 10.685,1.28181 15.30363,3.36042 C 107.72203,52.905415 54.112773,32.999616 54.112773,32.999616 19.237192,22.467964 39.017704,61.403283 39.017704,61.403283 63.66792,107.44665 59.557526,146.13743 55.372213,164.13987 c 0.315873,-0.45445 24.923568,-35.77868 52.825657,-51.39683 0,0 9.28989,-11.5628 26.81272,-11.70341 z M 26.095273,118.75065 c 0.164011,-6.11154 2.132141,-11.3957 2.132141,-11.3957 2.269828,-8.77502 -3.772249,-5.77937 -3.772249,-5.77937 -8.040579,3.1383 -0.166035,18.33054 -0.166035,18.33054 1.042784,5.18838 -1.804119,1.4856 -1.804119,1.4856 -4.266306,-6.43964 -7.056514,-13.7209 -7.056514,-13.7209 -3.630511,-7.01024 -5.7424032,0.17933 -5.7424032,0.17933 -1.9721793,6.11153 10.9947982,15.0292 10.9947982,15.0292 1.344484,3.46436 -1.970155,2.31093 -1.970155,2.31093 -7.38251,-6.93687 -15.5871001,-8.58753 -15.5871001,-8.58753 -7.9595859,3.81283 1.8041188,7.267 1.8041188,7.267 8.8606333,2.476 12.7847433,6.6047 12.7847433,6.6047 25.749696,20.47844 32.668522,44.92051 32.668522,44.92051 -0.658068,-20.14831 -20.511475,-43.76301 -20.511475,-43.76301 -6.072449,-10.4053 11.158809,-9.08477 11.158809,-9.08477 6.070425,0.6623 4.922349,-5.28417 4.922349,-5.28417 -3.571791,-10.15668 -16.57319,1.98284 -16.57319,1.98284 -3.11823,2.31093 -3.282241,-0.4952 -3.282241,-0.4952" />
  </g>
</svg>
